<svg width="512" height="512" viewBox="0 0 512 512" fill="none" xmlns="http://www.w3.org/2000/svg">
  <!-- Background Circle -->
  <circle cx="256" cy="256" r="256" fill="url(#gradient)" />
  
  <!-- Car Icon -->
  <g transform="translate(128, 180)">
    <!-- Car Body -->
    <path d="M32 96L64 32H192L224 96V128H32V96Z" fill="white" opacity="0.9" />
    <rect x="16" y="96" width="224" height="64" rx="8" fill="white" opacity="0.9" />
    
    <!-- Windows -->
    <path d="M72 48H184L208 80H48L72 48Z" fill="#3b82f6" opacity="0.7" />
    
    <!-- Wheels -->
    <circle cx="64" cy="144" r="24" fill="#1f2937" />
    <circle cx="64" cy="144" r="16" fill="#374151" />
    <circle cx="192" cy="144" r="24" fill="#1f2937" />
    <circle cx="192" cy="144" r="16" fill="#374151" />
    
    <!-- Headlights -->
    <circle cx="240" cy="112" r="8" fill="#fbbf24" />
    <circle cx="240" cy="128" r="8" fill="#fbbf24" />
    
    <!-- Grille -->
    <rect x="232" y="104" width="16" height="32" rx="2" fill="#6b7280" />
    <rect x="236" y="108" width="8" height="4" fill="#9ca3af" />
    <rect x="236" y="116" width="8" height="4" fill="#9ca3af" />
    <rect x="236" y="124" width="8" height="4" fill="#9ca3af" />
    <rect x="236" y="132" width="8" height="4" fill="#9ca3af" />
  </g>
  
  <!-- Gear Icon (representing auto parts) -->
  <g transform="translate(320, 280)">
    <circle cx="32" cy="32" r="28" fill="white" opacity="0.2" />
    <path d="M32 8L36 16H28L32 8ZM56 32L48 36V28L56 32ZM32 56L28 48H36L32 56ZM8 32L16 28V36L8 32Z" fill="white" opacity="0.8" />
    <circle cx="32" cy="32" r="12" fill="white" opacity="0.9" />
    <circle cx="32" cy="32" r="6" fill="#3b82f6" />
  </g>
  
  <!-- Chart/Analytics Icon -->
  <g transform="translate(160, 320)">
    <rect x="0" y="24" width="8" height="24" rx="2" fill="white" opacity="0.7" />
    <rect x="12" y="16" width="8" height="32" rx="2" fill="white" opacity="0.8" />
    <rect x="24" y="8" width="8" height="40" rx="2" fill="white" opacity="0.9" />
    <rect x="36" y="20" width="8" height="28" rx="2" fill="white" opacity="0.8" />
  </g>
  
  <!-- Money/Sales Icon -->
  <g transform="translate(100, 120)">
    <circle cx="20" cy="20" r="18" fill="white" opacity="0.3" />
    <path d="M20 8V12M20 28V32M12 16H16C17.1 16 18 16.9 18 18C18 19.1 17.1 20 16 20H14C12.9 20 12 20.9 12 22C12 23.1 12.9 24 14 24H28M20 8C15.6 8 12 11.6 12 16H28C28 11.6 24.4 8 20 8Z" stroke="white" stroke-width="2" fill="none" opacity="0.8" />
  </g>
  
  <!-- Gradient Definition -->
  <defs>
    <linearGradient id="gradient" x1="0%" y1="0%" x2="100%" y2="100%">
      <stop offset="0%" style="stop-color:#3b82f6;stop-opacity:1" />
      <stop offset="50%" style="stop-color:#1d4ed8;stop-opacity:1" />
      <stop offset="100%" style="stop-color:#1e40af;stop-opacity:1" />
    </linearGradient>
  </defs>
</svg>